<svg width="675" height="79" viewBox="0 0 675 79" fill="none" xmlns="http://www.w3.org/2000/svg">
<path d="M15.6974 4.27273V77H0.321023V4.27273H15.6974ZM43.1921 45.4659V77H28.0643V22.4545H42.4819V32.0781H43.1211C44.3285 28.9058 46.3526 26.3963 49.1935 24.5497C52.0344 22.6795 55.479 21.7443 59.5273 21.7443C63.3152 21.7443 66.6178 22.5729 69.435 24.2301C72.2523 25.8873 74.4421 28.2547 76.0046 31.3324C77.5671 34.3864 78.3484 38.0322 78.3484 42.2699V77H63.2205V44.9688C63.2442 41.6307 62.3919 39.0265 60.6637 37.1562C58.9355 35.2623 56.5562 34.3153 53.5259 34.3153C51.4899 34.3153 49.6907 34.7533 48.1282 35.6293C46.5894 36.5052 45.382 37.7836 44.506 39.4645C43.6538 41.1217 43.2158 43.1222 43.1921 45.4659ZM119.284 22.4545V33.8182H86.4361V22.4545H119.284ZM93.8935 9.38636H109.021V60.2386C109.021 61.6354 109.234 62.7244 109.661 63.5057C110.087 64.2633 110.679 64.7959 111.436 65.1037C112.217 65.4115 113.117 65.5653 114.135 65.5653C114.845 65.5653 115.555 65.5062 116.266 65.3878C116.976 65.2457 117.52 65.1392 117.899 65.0682L120.278 76.3253C119.521 76.562 118.455 76.8343 117.082 77.142C115.709 77.4735 114.04 77.6747 112.075 77.7457C108.429 77.8878 105.233 77.4025 102.487 76.2898C99.7647 75.1771 97.6458 73.4489 96.1307 71.1051C94.6155 68.7614 93.8698 65.8021 93.8935 62.2273V9.38636ZM153.411 78.0653C147.8 78.0653 142.97 76.929 138.922 74.6562C134.897 72.3598 131.796 69.1165 129.618 64.9261C127.44 60.7121 126.351 55.7287 126.351 49.9759C126.351 44.3651 127.44 39.4408 129.618 35.2031C131.796 30.9654 134.862 27.6629 138.815 25.2955C142.793 22.928 147.456 21.7443 152.807 21.7443C156.405 21.7443 159.755 22.3243 162.857 23.4844C165.982 24.6207 168.704 26.3371 171.024 28.6335C173.368 30.9299 175.191 33.8182 176.493 37.2983C177.795 40.7547 178.446 44.803 178.446 49.4432V53.598H132.388V44.223H164.206C164.206 42.045 163.732 40.1155 162.786 38.4347C161.839 36.7538 160.525 35.4399 158.844 34.4929C157.187 33.5223 155.257 33.0369 153.055 33.0369C150.759 33.0369 148.723 33.5696 146.947 34.6349C145.196 35.6766 143.822 37.0852 142.828 38.8608C141.834 40.6127 141.325 42.5658 141.301 44.7202V53.6335C141.301 56.3324 141.798 58.6643 142.793 60.6293C143.811 62.5942 145.243 64.1094 147.089 65.1747C148.936 66.2401 151.126 66.7727 153.659 66.7727C155.34 66.7727 156.879 66.536 158.276 66.0625C159.672 65.589 160.868 64.8788 161.862 63.9318C162.857 62.9848 163.614 61.8248 164.135 60.4517L178.126 61.375C177.416 64.7367 175.96 67.6723 173.759 70.1818C171.58 72.6676 168.763 74.6089 165.307 76.0057C161.874 77.3788 157.909 78.0653 153.411 78.0653ZM188.318 77V22.4545H202.984V31.9716H203.553C204.547 28.5862 206.216 26.0294 208.56 24.3011C210.903 22.5492 213.602 21.6733 216.656 21.6733C217.414 21.6733 218.231 21.7206 219.107 21.8153C219.982 21.91 220.752 22.0402 221.415 22.206V35.6293C220.705 35.4162 219.722 35.2268 218.467 35.0611C217.213 34.8954 216.064 34.8125 215.023 34.8125C212.797 34.8125 210.809 35.2978 209.057 36.2685C207.329 37.2154 205.955 38.5412 204.938 40.2457C203.943 41.9503 203.446 43.9152 203.446 46.1406V77H188.318ZM281.749 22.4545L262.679 77H245.634L226.564 22.4545H242.544L253.872 61.4815H254.44L265.733 22.4545H281.749ZM303.579 78.0298C300.099 78.0298 296.998 77.4261 294.275 76.2188C291.553 74.9877 289.398 73.1766 287.812 70.7855C286.25 68.3707 285.468 65.3641 285.468 61.7656C285.468 58.7353 286.025 56.1903 287.137 54.1307C288.25 52.071 289.765 50.4138 291.683 49.1591C293.6 47.9044 295.779 46.9574 298.217 46.3182C300.679 45.679 303.26 45.2292 305.958 44.9688C309.131 44.6373 311.688 44.3295 313.629 44.0455C315.57 43.7377 316.979 43.2879 317.855 42.696C318.731 42.1042 319.169 41.2282 319.169 40.0682V39.8551C319.169 37.6061 318.458 35.866 317.038 34.6349C315.641 33.4039 313.653 32.7884 311.072 32.7884C308.35 32.7884 306.183 33.392 304.574 34.5994C302.964 35.7831 301.898 37.2746 301.377 39.0739L287.386 37.9375C288.096 34.6231 289.493 31.7585 291.576 29.3438C293.66 26.9053 296.347 25.035 299.637 23.733C302.952 22.4072 306.787 21.7443 311.143 21.7443C314.173 21.7443 317.074 22.0994 319.843 22.8097C322.637 23.5199 325.111 24.6207 327.265 26.1122C329.443 27.6037 331.16 29.5213 332.414 31.8651C333.669 34.1851 334.297 36.9669 334.297 40.2102V77H319.95V69.4361H319.524C318.648 71.1406 317.476 72.6439 316.008 73.946C314.54 75.2244 312.777 76.2306 310.717 76.9645C308.657 77.6747 306.278 78.0298 303.579 78.0298ZM307.912 67.5895C310.137 67.5895 312.102 67.1515 313.806 66.2756C315.511 65.3759 316.849 64.1686 317.819 62.6534C318.79 61.1383 319.275 59.4219 319.275 57.5043V51.7159C318.802 52.0237 318.151 52.3078 317.322 52.5682C316.517 52.8049 315.606 53.0298 314.588 53.2429C313.57 53.4323 312.552 53.6098 311.534 53.7756C310.516 53.9176 309.592 54.0478 308.764 54.1662C306.988 54.4266 305.438 54.8409 304.112 55.4091C302.786 55.9773 301.756 56.7467 301.022 57.7173C300.288 58.6643 299.922 59.848 299.922 61.2685C299.922 63.3281 300.667 64.9025 302.159 65.9915C303.674 67.0568 305.592 67.5895 307.912 67.5895ZM361.161 4.27273V77H346.033V4.27273H361.161ZM393.938 16.9503V4.27273H453.668V16.9503H431.402V77H416.203V16.9503H393.938ZM463.221 77V22.4545H478.348V77H463.221ZM470.82 15.4233C468.571 15.4233 466.641 14.6776 465.032 13.1861C463.445 11.6709 462.652 9.85985 462.652 7.75284C462.652 5.6695 463.445 3.8821 465.032 2.39062C466.641 0.875471 468.571 0.117894 470.82 0.117894C473.069 0.117894 474.987 0.875471 476.573 2.39062C478.183 3.8821 478.988 5.6695 478.988 7.75284C478.988 9.85985 478.183 11.6709 476.573 13.1861C474.987 14.6776 473.069 15.4233 470.82 15.4233ZM490.467 77V22.4545H504.884V32.0781H505.523C506.66 28.8821 508.554 26.3608 511.205 24.5142C513.857 22.6676 517.029 21.7443 520.722 21.7443C524.463 21.7443 527.647 22.6795 530.275 24.5497C532.903 26.3963 534.655 28.9058 535.531 32.0781H536.099C537.211 28.9531 539.224 26.4555 542.136 24.5852C545.071 22.6913 548.54 21.7443 552.54 21.7443C557.63 21.7443 561.762 23.366 564.934 26.6094C568.13 29.8291 569.728 34.3982 569.728 40.3168V77H554.636V43.2997C554.636 40.2694 553.831 37.9967 552.221 36.4815C550.611 34.9664 548.599 34.2088 546.184 34.2088C543.438 34.2088 541.295 35.0848 539.756 36.8366C538.218 38.5649 537.448 40.8494 537.448 43.6903V77H522.782V42.9801C522.782 40.3049 522.013 38.1742 520.474 36.5881C518.959 35.0019 516.958 34.2088 514.472 34.2088C512.791 34.2088 511.276 34.6349 509.927 35.4872C508.601 36.3158 507.548 37.4877 506.766 39.0028C505.985 40.4943 505.594 42.2462 505.594 44.2585V77H490.467ZM606.536 78.0653C600.925 78.0653 596.095 76.929 592.047 74.6562C588.022 72.3598 584.921 69.1165 582.743 64.9261C580.565 60.7121 579.476 55.7287 579.476 49.9759C579.476 44.3651 580.565 39.4408 582.743 35.2031C584.921 30.9654 587.987 27.6629 591.94 25.2955C595.918 22.928 600.581 21.7443 605.932 21.7443C609.53 21.7443 612.88 22.3243 615.982 23.4844C619.107 24.6207 621.829 26.3371 624.149 28.6335C626.493 30.9299 628.316 33.8182 629.618 37.2983C630.92 40.7547 631.571 44.803 631.571 49.4432V53.598H585.513V44.223H617.331C617.331 42.045 616.857 40.1155 615.911 38.4347C614.964 36.7538 613.65 35.4399 611.969 34.4929C610.312 33.5223 608.382 33.0369 606.18 33.0369C603.884 33.0369 601.848 33.5696 600.072 34.6349C598.321 35.6766 596.947 37.0852 595.953 38.8608C594.959 40.6127 594.45 42.5658 594.426 44.7202V53.6335C594.426 56.3324 594.923 58.6643 595.918 60.6293C596.936 62.5942 598.368 64.1094 600.214 65.1747C602.061 66.2401 604.251 66.7727 606.784 66.7727C608.465 66.7727 610.004 66.536 611.401 66.0625C612.797 65.589 613.993 64.8788 614.987 63.9318C615.982 62.9848 616.739 61.8248 617.26 60.4517L631.251 61.375C630.541 64.7367 629.085 67.6723 626.884 70.1818C624.705 72.6676 621.888 74.6089 618.432 76.0057C614.999 77.3788 611.034 78.0653 606.536 78.0653ZM641.443 77V22.4545H656.109V31.9716H656.678C657.672 28.5862 659.341 26.0294 661.685 24.3011C664.028 22.5492 666.727 21.6733 669.781 21.6733C670.539 21.6733 671.356 21.7206 672.232 21.8153C673.107 21.91 673.877 22.0402 674.54 22.206V35.6293C673.83 35.4162 672.847 35.2268 671.592 35.0611C670.338 34.8954 669.189 34.8125 668.148 34.8125C665.922 34.8125 663.934 35.2978 662.182 36.2685C660.454 37.2154 659.08 38.5412 658.062 40.2457C657.068 41.9503 656.571 43.9152 656.571 46.1406V77H641.443Z" fill="currentColor"/>
</svg>
