<svg width="509" height="78" viewBox="0 0 509 78" fill="none" xmlns="http://www.w3.org/2000/svg">
<path d="M100.984 6.71289L100.252 9.93555C99.4382 9.9681 98.4453 10.1634 97.2734 10.5215C96.1016 10.847 95.0111 11.2865 94.002 11.8398C92.6673 12.5885 91.5443 13.4512 90.6328 14.4277C89.7214 15.4043 88.8099 16.7389 87.8984 18.4316C84.5456 24.6491 79.9883 33.1615 74.2266 43.9688C68.4974 54.776 62.6055 65.7461 56.5508 76.8789H52.2051L46.541 23.4609L16.2188 76.8789H11.9219C11.1732 62.0677 10.5384 49.6165 10.0176 39.5254C9.49674 29.4017 9.10612 21.7357 8.8457 16.5273C8.7806 15.4857 8.58529 14.6068 8.25977 13.8906C7.93424 13.1745 7.29948 12.4421 6.35547 11.6934C5.67188 11.14 4.79297 10.7331 3.71875 10.4727C2.67708 10.1797 1.73307 10.0007 0.886719 9.93555L1.61914 6.71289H29.5L28.7676 9.93555C24.8939 10.1634 22.2897 10.5866 20.9551 11.2051C19.653 11.791 19.002 12.5072 19.002 13.3535C19.002 14.0046 19.0182 14.9648 19.0508 16.2344C19.0833 17.5039 19.1322 18.806 19.1973 20.1406C19.2949 22.3867 19.5228 26.9277 19.8809 33.7637C20.2715 40.5671 20.7435 49.1445 21.2969 59.4961L50.3984 7.68945H54.8906L60.7012 60.6191C64.7702 52.8392 68.3184 45.9382 71.3457 39.916C74.373 33.8613 77.0749 28.4251 79.4512 23.6074C80.8835 20.6452 81.8763 18.3991 82.4297 16.8691C83.0156 15.3392 83.3086 14.265 83.3086 13.6465C83.3086 12.6048 82.5599 11.7747 81.0625 11.1562C79.5977 10.5052 77.4655 10.0983 74.666 9.93555L75.3984 6.71289H100.984ZM134.773 36.8887C134.773 40.3392 133.683 43.3014 131.502 45.7754C129.354 48.2493 126.212 50.2188 122.078 51.6836C119.051 52.7904 115.991 53.6855 112.898 54.3691C109.806 55.0527 106.388 55.6224 102.645 56.0781C102.645 61.2214 103.589 65.1602 105.477 67.8945C107.397 70.5964 110.197 71.9473 113.875 71.9473C117.13 71.9473 119.995 71.1335 122.469 69.5059C124.975 67.8783 127.433 65.4531 129.842 62.2305L132.625 64.2812C130.021 68.2526 126.766 71.4264 122.859 73.8027C118.953 76.179 114.9 77.3672 110.701 77.3672C104.939 77.3672 100.529 75.7559 97.4688 72.5332C94.4414 69.3105 92.9277 64.737 92.9277 58.8125C92.9277 54.7109 93.5625 50.8047 94.832 47.0938C96.1341 43.3503 98.0221 39.9323 100.496 36.8398C102.905 33.8125 105.851 31.3711 109.334 29.5156C112.85 27.6602 116.723 26.7324 120.955 26.7324C125.643 26.7324 129.109 27.6927 131.355 29.6133C133.634 31.5013 134.773 33.9264 134.773 36.8887ZM125.789 35.668C125.789 34.3984 125.61 33.4056 125.252 32.6895C124.894 31.9408 124.438 31.3874 123.885 31.0293C123.299 30.6387 122.68 30.3945 122.029 30.2969C121.378 30.1992 120.711 30.1504 120.027 30.1504C116.121 30.1504 112.508 32.2988 109.188 36.5957C105.9 40.8926 103.816 46.2474 102.938 52.6602C105.216 52.3346 107.788 51.8789 110.652 51.293C113.517 50.6745 115.893 49.877 117.781 48.9004C120.483 47.5007 122.485 45.7103 123.787 43.5293C125.122 41.3158 125.789 38.6953 125.789 35.668ZM166.023 1.14648L152.4 59.9355C152.107 61.1725 151.831 62.4095 151.57 63.6465C151.31 64.8835 151.18 65.8926 151.18 66.6738C151.18 68.5293 151.587 69.7988 152.4 70.4824C153.247 71.166 154.598 71.5078 156.453 71.5078C157.104 71.5078 158.064 71.4264 159.334 71.2637C160.636 71.1009 161.613 70.9056 162.264 70.6777L161.531 73.8027C158.602 74.9746 156.339 75.8047 154.744 76.293C153.182 76.7812 151.408 77.0254 149.422 77.0254C146.818 77.0254 144.832 76.3581 143.465 75.0234C142.13 73.6562 141.463 71.9798 141.463 69.9941C141.463 69.2454 141.528 68.4642 141.658 67.6504C141.821 66.8366 142.033 65.8112 142.293 64.5742L154.158 13.1582C154.386 12.1491 154.533 11.4492 154.598 11.0586C154.695 10.668 154.744 10.1797 154.744 9.59375C154.744 8.42188 154.549 7.52669 154.158 6.9082C153.768 6.25716 153.214 5.76888 152.498 5.44336C151.814 5.15039 150.952 4.95508 149.91 4.85742C148.868 4.75977 147.811 4.64583 146.736 4.51562L147.42 1.53711L165.535 0.414062L166.023 1.14648ZM186.971 77.3672C181.274 77.3672 176.766 75.707 173.445 72.3867C170.158 69.0664 168.514 64.3464 168.514 58.2266C168.514 54.1576 169.132 50.2676 170.369 46.5566C171.639 42.8132 173.396 39.4928 175.643 36.5957C177.889 33.6986 180.721 31.3385 184.139 29.5156C187.589 27.6602 191.414 26.7324 195.613 26.7324C200.268 26.7324 203.8 27.7253 206.209 29.7109C208.65 31.6641 209.871 34.138 209.871 37.1328C209.871 39.3789 209.334 41.3483 208.26 43.041C207.218 44.7337 205.639 45.5801 203.523 45.5801C201.766 45.5801 200.447 45.1406 199.568 44.2617C198.689 43.3828 198.25 42.4062 198.25 41.332C198.25 40.2904 198.608 38.8743 199.324 37.084C200.04 35.2611 200.61 33.7962 201.033 32.6895C200.675 31.8105 199.878 31.1758 198.641 30.7852C197.404 30.362 196.118 30.1504 194.783 30.1504C190.356 30.1504 186.531 32.7383 183.309 37.9141C180.118 43.0573 178.523 49.3724 178.523 56.8594C178.523 61.4818 179.549 65.1602 181.6 67.8945C183.683 70.5964 186.482 71.9473 189.998 71.9473C193.156 71.9473 195.955 71.1009 198.396 69.4082C200.87 67.7155 203.23 65.3229 205.477 62.2305L208.26 64.2812C206.014 67.8294 202.954 70.9056 199.08 73.5098C195.239 76.0814 191.202 77.3672 186.971 77.3672ZM261.092 45.9219C261.092 49.763 260.441 53.6042 259.139 57.4453C257.837 61.2865 255.949 64.6556 253.475 67.5527C250.968 70.5475 247.941 72.9564 244.393 74.7793C240.877 76.5697 236.792 77.4648 232.137 77.4648C226.733 77.4648 222.339 75.7233 218.953 72.2402C215.6 68.7572 213.924 64.0697 213.924 58.1777C213.924 53.8483 214.64 49.8118 216.072 46.0684C217.505 42.3249 219.425 39.0371 221.834 36.2051C224.275 33.373 227.286 31.0944 230.867 29.3691C234.48 27.6113 238.387 26.7324 242.586 26.7324C248.38 26.7324 252.905 28.5065 256.16 32.0547C259.448 35.5703 261.092 40.1927 261.092 45.9219ZM251.131 44.0664C251.131 39.444 250.301 35.9772 248.641 33.666C247.013 31.3548 244.653 30.1992 241.561 30.1992C238.859 30.1992 236.303 31.0293 233.895 32.6895C231.518 34.3496 229.467 37.0514 227.742 40.7949C226.408 43.627 225.431 46.7845 224.812 50.2676C224.194 53.7181 223.885 56.9082 223.885 59.8379C223.885 64.4928 224.682 68.0247 226.277 70.4336C227.905 72.8099 230.346 73.998 233.602 73.998C236.499 73.998 239.07 73.0866 241.316 71.2637C243.562 69.4408 245.385 67.1296 246.785 64.3301C248.185 61.5957 249.259 58.4707 250.008 54.9551C250.757 51.4069 251.131 47.7773 251.131 44.0664ZM349.471 70.4824L348.738 73.6074C345.743 74.8118 343.351 75.6419 341.561 76.0977C339.77 76.5859 338.24 76.8301 336.971 76.8301C334.367 76.8301 332.413 76.1628 331.111 74.8281C329.809 73.4609 329.158 71.7845 329.158 69.7988C329.158 69.0827 329.223 68.3014 329.354 67.4551C329.484 66.5762 329.695 65.5508 329.988 64.3789L334.773 46.166C335.132 44.7663 335.408 43.4967 335.604 42.3574C335.831 41.2181 335.945 40.3066 335.945 39.623C335.945 37.4421 335.473 35.7168 334.529 34.4473C333.585 33.1777 332.088 32.543 330.037 32.543C327.856 32.543 325.708 33.0638 323.592 34.1055C321.508 35.1146 319.148 37.0189 316.512 39.8184L308.016 76H298.934L306.6 43.3828C306.762 42.6667 306.909 41.918 307.039 41.1367C307.202 40.3229 307.283 39.7207 307.283 39.3301C307.283 37.2142 306.746 35.554 305.672 34.3496C304.63 33.1452 303.084 32.543 301.033 32.543C299.178 32.543 297.127 33.015 294.881 33.959C292.635 34.8704 290.031 36.9375 287.068 40.1602L278.816 76H269.734L277.01 44.3594C277.27 43.2201 277.514 41.9993 277.742 40.6973C278.003 39.3952 278.133 38.2884 278.133 37.377C278.133 35.4889 277.824 34.252 277.205 33.666C276.587 33.0475 275.382 32.7383 273.592 32.7383C272.876 32.7383 271.948 32.8685 270.809 33.1289C269.702 33.3893 268.839 33.6009 268.221 33.7637L268.953 30.6387C271.492 29.4993 273.738 28.653 275.691 28.0996C277.645 27.5462 279.321 27.2695 280.721 27.2695C283.325 27.2695 285.164 27.9857 286.238 29.418C287.345 30.8177 287.931 32.7383 287.996 35.1797H288.289C292.13 32.1523 295.288 29.9876 297.762 28.6855C300.236 27.3835 303.182 26.7324 306.6 26.7324C309.497 26.7324 311.84 27.5788 313.631 29.2715C315.454 30.9316 316.479 33.0312 316.707 35.5703H316.902C320.385 32.6732 323.478 30.4759 326.18 28.9785C328.914 27.4811 332.088 26.7324 335.701 26.7324C338.826 26.7324 341.219 27.6439 342.879 29.4668C344.572 31.2572 345.418 33.6172 345.418 36.5469C345.418 37.1328 345.32 38.1745 345.125 39.6719C344.962 41.1693 344.686 42.6504 344.295 44.1152L340.193 59.7891C339.9 60.8307 339.624 62.0352 339.363 63.4023C339.103 64.737 338.973 65.7786 338.973 66.5273C338.973 68.3828 339.363 69.6523 340.145 70.3359C340.926 70.987 342.244 71.3125 344.1 71.3125C344.718 71.3125 345.613 71.2311 346.785 71.0684C347.957 70.9056 348.852 70.7103 349.471 70.4824ZM397.566 36.8887C397.566 40.3392 396.476 43.3014 394.295 45.7754C392.146 48.2493 389.005 50.2188 384.871 51.6836C381.844 52.7904 378.784 53.6855 375.691 54.3691C372.599 55.0527 369.181 55.6224 365.438 56.0781C365.438 61.2214 366.382 65.1602 368.27 67.8945C370.19 70.5964 372.99 71.9473 376.668 71.9473C379.923 71.9473 382.788 71.1335 385.262 69.5059C387.768 67.8783 390.226 65.4531 392.635 62.2305L395.418 64.2812C392.814 68.2526 389.559 71.4264 385.652 73.8027C381.746 76.179 377.693 77.3672 373.494 77.3672C367.732 77.3672 363.322 75.7559 360.262 72.5332C357.234 69.3105 355.721 64.737 355.721 58.8125C355.721 54.7109 356.355 50.8047 357.625 47.0938C358.927 43.3503 360.815 39.9323 363.289 36.8398C365.698 33.8125 368.644 31.3711 372.127 29.5156C375.643 27.6602 379.516 26.7324 383.748 26.7324C388.436 26.7324 391.902 27.6927 394.148 29.6133C396.427 31.5013 397.566 33.9264 397.566 36.8887ZM388.582 35.668C388.582 34.3984 388.403 33.4056 388.045 32.6895C387.687 31.9408 387.231 31.3874 386.678 31.0293C386.092 30.6387 385.473 30.3945 384.822 30.2969C384.171 30.1992 383.504 30.1504 382.82 30.1504C378.914 30.1504 375.301 32.2988 371.98 36.5957C368.693 40.8926 366.609 46.2474 365.73 52.6602C368.009 52.3346 370.581 51.8789 373.445 51.293C376.31 50.6745 378.686 49.877 380.574 48.9004C383.276 47.5007 385.278 45.7103 386.58 43.5293C387.915 41.3158 388.582 38.6953 388.582 35.668ZM438.436 77.0254C435.343 77.0254 433.081 76.4069 431.648 75.1699C430.216 73.9004 429.5 72.0938 429.5 69.75C429.5 69.0013 429.549 68.3014 429.646 67.6504C429.744 66.9668 429.874 66.2018 430.037 65.3555L437.605 32.7383H428.914L429.939 28.2949H438.826L442.244 13.9883H451.033L447.713 28.2949H461.336L460.311 32.7383H446.785L440.535 59.6426C440.242 60.8796 439.998 62.084 439.803 63.2559C439.607 64.3952 439.51 65.3717 439.51 66.1855C439.51 67.9759 439.949 69.2943 440.828 70.1406C441.74 70.9544 443.367 71.3613 445.711 71.3613C446.557 71.3613 447.745 71.2637 449.275 71.0684C450.805 70.8405 451.993 70.5638 452.84 70.2383L452.01 73.8027C449.731 74.6816 447.583 75.4303 445.564 76.0488C443.546 76.6999 441.17 77.0254 438.436 77.0254ZM508.846 45.9219C508.846 49.763 508.195 53.6042 506.893 57.4453C505.59 61.2865 503.702 64.6556 501.229 67.5527C498.722 70.5475 495.695 72.9564 492.146 74.7793C488.631 76.5697 484.546 77.4648 479.891 77.4648C474.487 77.4648 470.092 75.7233 466.707 72.2402C463.354 68.7572 461.678 64.0697 461.678 58.1777C461.678 53.8483 462.394 49.8118 463.826 46.0684C465.258 42.3249 467.179 39.0371 469.588 36.2051C472.029 33.373 475.04 31.0944 478.621 29.3691C482.234 27.6113 486.141 26.7324 490.34 26.7324C496.134 26.7324 500.659 28.5065 503.914 32.0547C507.202 35.5703 508.846 40.1927 508.846 45.9219ZM498.885 44.0664C498.885 39.444 498.055 35.9772 496.395 33.666C494.767 31.3548 492.407 30.1992 489.314 30.1992C486.613 30.1992 484.057 31.0293 481.648 32.6895C479.272 34.3496 477.221 37.0514 475.496 40.7949C474.161 43.627 473.185 46.7845 472.566 50.2676C471.948 53.7181 471.639 56.9082 471.639 59.8379C471.639 64.4928 472.436 68.0247 474.031 70.4336C475.659 72.8099 478.1 73.998 481.355 73.998C484.253 73.998 486.824 73.0866 489.07 71.2637C491.316 69.4408 493.139 67.1296 494.539 64.3301C495.939 61.5957 497.013 58.4707 497.762 54.9551C498.51 51.4069 498.885 47.7773 498.885 44.0664Z" fill="currentColor"/>
</svg>
