<?xml version="1.0" standalone="no"?>
<!DOCTYPE svg PUBLIC "-//W3C//DTD SVG 20010904//EN"
 "http://www.w3.org/TR/2001/REC-SVG-20010904/DTD/svg10.dtd">
<svg version="1.0" xmlns="http://www.w3.org/2000/svg"
 width="700.000000pt" height="700.000000pt" viewBox="0 0 700.000000 700.000000"
 preserveAspectRatio="xMidYMid meet">
<metadata>
Created by potrace 1.14, written by Peter Selinger 2001-2017
</metadata>
<g transform="translate(0.000000,700.000000) scale(0.100000,-0.100000)"
fill="#000000" stroke="none">
<path d="M648 6989 c-34 -13 -70 -83 -62 -123 2 -15 12 -38 20 -51 29 -44 61
-49 318 -49 l241 -1 0 -170 c0 -93 3 -172 7 -175 3 -3 135 -5 292 -4 l286 0 1
-690 c0 -380 3 -704 5 -721 37 -249 158 -439 381 -598 43 -31 121 -88 173
-127 52 -39 120 -88 150 -110 30 -21 141 -102 245 -180 105 -77 213 -156 240
-175 28 -19 61 -44 75 -55 14 -11 65 -49 114 -85 93 -67 121 -99 130 -150 8
-42 -10 -98 -39 -127 -20 -20 -474 -358 -785 -583 -420 -305 -446 -327 -532
-441 -75 -100 -138 -257 -152 -379 -3 -22 -5 -349 -5 -726 l-1 -685 -286 0
c-166 1 -288 -3 -292 -8 -3 -5 -6 -84 -6 -175 l-1 -166 -241 -1 c-256 -1 -290
-6 -318 -48 -27 -41 -28 -90 -3 -127 12 -19 34 -39 47 -46 37 -19 5663 -19
5700 0 85 43 85 168 0 206 -30 13 -77 16 -276 15 l-240 -1 1 166 c0 91 -2 171
-6 176 -5 6 -113 10 -293 9 l-285 -1 -3 726 c-4 721 -4 726 -26 800 -46 149
-113 263 -216 365 -34 34 -140 118 -236 188 -163 118 -912 668 -972 713 -77
58 -84 170 -15 234 27 24 683 509 1057 780 57 42 132 103 166 136 114 111 208
289 230 435 2 14 6 36 8 50 3 14 5 336 5 716 l1 691 281 -1 c154 -1 286 2 292
6 7 4 11 64 11 175 l1 168 241 1 c260 1 289 5 320 52 9 14 17 45 17 70 0 36
-6 49 -32 75 l-31 32 -2838 2 c-1847 1 -2846 -2 -2864 -8z"/>
</g>
</svg>
