<svg width="744" height="78" viewBox="0 0 744 78" fill="none" xmlns="http://www.w3.org/2000/svg">
<path d="M100.984 6.71289L100.252 9.93555C99.4382 9.9681 98.4453 10.1634 97.2734 10.5215C96.1016 10.847 95.0111 11.2865 94.002 11.8398C92.6673 12.5885 91.5443 13.4512 90.6328 14.4277C89.7214 15.4043 88.8099 16.7389 87.8984 18.4316C84.5456 24.6491 79.9883 33.1615 74.2266 43.9688C68.4974 54.776 62.6055 65.7461 56.5508 76.8789H52.2051L46.541 23.4609L16.2188 76.8789H11.9219C11.1732 62.0677 10.5384 49.6165 10.0176 39.5254C9.49674 29.4017 9.10612 21.7357 8.8457 16.5273C8.7806 15.4857 8.58529 14.6068 8.25977 13.8906C7.93424 13.1745 7.29948 12.4421 6.35547 11.6934C5.67188 11.14 4.79297 10.7331 3.71875 10.4727C2.67708 10.1797 1.73307 10.0007 0.886719 9.93555L1.61914 6.71289H29.5L28.7676 9.93555C24.8939 10.1634 22.2897 10.5866 20.9551 11.2051C19.653 11.791 19.002 12.5072 19.002 13.3535C19.002 14.0046 19.0182 14.9648 19.0508 16.2344C19.0833 17.5039 19.1322 18.806 19.1973 20.1406C19.2949 22.3867 19.5228 26.9277 19.8809 33.7637C20.2715 40.5671 20.7435 49.1445 21.2969 59.4961L50.3984 7.68945H54.8906L60.7012 60.6191C64.7702 52.8392 68.3184 45.9382 71.3457 39.916C74.373 33.8613 77.0749 28.4251 79.4512 23.6074C80.8835 20.6452 81.8763 18.3991 82.4297 16.8691C83.0156 15.3392 83.3086 14.265 83.3086 13.6465C83.3086 12.6048 82.5599 11.7747 81.0625 11.1562C79.5977 10.5052 77.4655 10.0983 74.666 9.93555L75.3984 6.71289H100.984ZM134.773 36.8887C134.773 40.3392 133.683 43.3014 131.502 45.7754C129.354 48.2493 126.212 50.2188 122.078 51.6836C119.051 52.7904 115.991 53.6855 112.898 54.3691C109.806 55.0527 106.388 55.6224 102.645 56.0781C102.645 61.2214 103.589 65.1602 105.477 67.8945C107.397 70.5964 110.197 71.9473 113.875 71.9473C117.13 71.9473 119.995 71.1335 122.469 69.5059C124.975 67.8783 127.433 65.4531 129.842 62.2305L132.625 64.2812C130.021 68.2526 126.766 71.4264 122.859 73.8027C118.953 76.179 114.9 77.3672 110.701 77.3672C104.939 77.3672 100.529 75.7559 97.4688 72.5332C94.4414 69.3105 92.9277 64.737 92.9277 58.8125C92.9277 54.7109 93.5625 50.8047 94.832 47.0938C96.1341 43.3503 98.0221 39.9323 100.496 36.8398C102.905 33.8125 105.851 31.3711 109.334 29.5156C112.85 27.6602 116.723 26.7324 120.955 26.7324C125.643 26.7324 129.109 27.6927 131.355 29.6133C133.634 31.5013 134.773 33.9264 134.773 36.8887ZM125.789 35.668C125.789 34.3984 125.61 33.4056 125.252 32.6895C124.894 31.9408 124.438 31.3874 123.885 31.0293C123.299 30.6387 122.68 30.3945 122.029 30.2969C121.378 30.1992 120.711 30.1504 120.027 30.1504C116.121 30.1504 112.508 32.2988 109.188 36.5957C105.9 40.8926 103.816 46.2474 102.938 52.6602C105.216 52.3346 107.788 51.8789 110.652 51.293C113.517 50.6745 115.893 49.877 117.781 48.9004C120.483 47.5007 122.485 45.7103 123.787 43.5293C125.122 41.3158 125.789 38.6953 125.789 35.668ZM166.023 1.14648L152.4 59.9355C152.107 61.1725 151.831 62.4095 151.57 63.6465C151.31 64.8835 151.18 65.8926 151.18 66.6738C151.18 68.5293 151.587 69.7988 152.4 70.4824C153.247 71.166 154.598 71.5078 156.453 71.5078C157.104 71.5078 158.064 71.4264 159.334 71.2637C160.636 71.1009 161.613 70.9056 162.264 70.6777L161.531 73.8027C158.602 74.9746 156.339 75.8047 154.744 76.293C153.182 76.7812 151.408 77.0254 149.422 77.0254C146.818 77.0254 144.832 76.3581 143.465 75.0234C142.13 73.6562 141.463 71.9798 141.463 69.9941C141.463 69.2454 141.528 68.4642 141.658 67.6504C141.821 66.8366 142.033 65.8112 142.293 64.5742L154.158 13.1582C154.386 12.1491 154.533 11.4492 154.598 11.0586C154.695 10.668 154.744 10.1797 154.744 9.59375C154.744 8.42188 154.549 7.52669 154.158 6.9082C153.768 6.25716 153.214 5.76888 152.498 5.44336C151.814 5.15039 150.952 4.95508 149.91 4.85742C148.868 4.75977 147.811 4.64583 146.736 4.51562L147.42 1.53711L165.535 0.414062L166.023 1.14648ZM186.971 77.3672C181.274 77.3672 176.766 75.707 173.445 72.3867C170.158 69.0664 168.514 64.3464 168.514 58.2266C168.514 54.1576 169.132 50.2676 170.369 46.5566C171.639 42.8132 173.396 39.4928 175.643 36.5957C177.889 33.6986 180.721 31.3385 184.139 29.5156C187.589 27.6602 191.414 26.7324 195.613 26.7324C200.268 26.7324 203.8 27.7253 206.209 29.7109C208.65 31.6641 209.871 34.138 209.871 37.1328C209.871 39.3789 209.334 41.3483 208.26 43.041C207.218 44.7337 205.639 45.5801 203.523 45.5801C201.766 45.5801 200.447 45.1406 199.568 44.2617C198.689 43.3828 198.25 42.4062 198.25 41.332C198.25 40.2904 198.608 38.8743 199.324 37.084C200.04 35.2611 200.61 33.7962 201.033 32.6895C200.675 31.8105 199.878 31.1758 198.641 30.7852C197.404 30.362 196.118 30.1504 194.783 30.1504C190.356 30.1504 186.531 32.7383 183.309 37.9141C180.118 43.0573 178.523 49.3724 178.523 56.8594C178.523 61.4818 179.549 65.1602 181.6 67.8945C183.683 70.5964 186.482 71.9473 189.998 71.9473C193.156 71.9473 195.955 71.1009 198.396 69.4082C200.87 67.7155 203.23 65.3229 205.477 62.2305L208.26 64.2812C206.014 67.8294 202.954 70.9056 199.08 73.5098C195.239 76.0814 191.202 77.3672 186.971 77.3672ZM261.092 45.9219C261.092 49.763 260.441 53.6042 259.139 57.4453C257.837 61.2865 255.949 64.6556 253.475 67.5527C250.968 70.5475 247.941 72.9564 244.393 74.7793C240.877 76.5697 236.792 77.4648 232.137 77.4648C226.733 77.4648 222.339 75.7233 218.953 72.2402C215.6 68.7572 213.924 64.0697 213.924 58.1777C213.924 53.8483 214.64 49.8118 216.072 46.0684C217.505 42.3249 219.425 39.0371 221.834 36.2051C224.275 33.373 227.286 31.0944 230.867 29.3691C234.48 27.6113 238.387 26.7324 242.586 26.7324C248.38 26.7324 252.905 28.5065 256.16 32.0547C259.448 35.5703 261.092 40.1927 261.092 45.9219ZM251.131 44.0664C251.131 39.444 250.301 35.9772 248.641 33.666C247.013 31.3548 244.653 30.1992 241.561 30.1992C238.859 30.1992 236.303 31.0293 233.895 32.6895C231.518 34.3496 229.467 37.0514 227.742 40.7949C226.408 43.627 225.431 46.7845 224.812 50.2676C224.194 53.7181 223.885 56.9082 223.885 59.8379C223.885 64.4928 224.682 68.0247 226.277 70.4336C227.905 72.8099 230.346 73.998 233.602 73.998C236.499 73.998 239.07 73.0866 241.316 71.2637C243.562 69.4408 245.385 67.1296 246.785 64.3301C248.185 61.5957 249.259 58.4707 250.008 54.9551C250.757 51.4069 251.131 47.7773 251.131 44.0664ZM349.471 70.4824L348.738 73.6074C345.743 74.8118 343.351 75.6419 341.561 76.0977C339.77 76.5859 338.24 76.8301 336.971 76.8301C334.367 76.8301 332.413 76.1628 331.111 74.8281C329.809 73.4609 329.158 71.7845 329.158 69.7988C329.158 69.0827 329.223 68.3014 329.354 67.4551C329.484 66.5762 329.695 65.5508 329.988 64.3789L334.773 46.166C335.132 44.7663 335.408 43.4967 335.604 42.3574C335.831 41.2181 335.945 40.3066 335.945 39.623C335.945 37.4421 335.473 35.7168 334.529 34.4473C333.585 33.1777 332.088 32.543 330.037 32.543C327.856 32.543 325.708 33.0638 323.592 34.1055C321.508 35.1146 319.148 37.0189 316.512 39.8184L308.016 76H298.934L306.6 43.3828C306.762 42.6667 306.909 41.918 307.039 41.1367C307.202 40.3229 307.283 39.7207 307.283 39.3301C307.283 37.2142 306.746 35.554 305.672 34.3496C304.63 33.1452 303.084 32.543 301.033 32.543C299.178 32.543 297.127 33.015 294.881 33.959C292.635 34.8704 290.031 36.9375 287.068 40.1602L278.816 76H269.734L277.01 44.3594C277.27 43.2201 277.514 41.9993 277.742 40.6973C278.003 39.3952 278.133 38.2884 278.133 37.377C278.133 35.4889 277.824 34.252 277.205 33.666C276.587 33.0475 275.382 32.7383 273.592 32.7383C272.876 32.7383 271.948 32.8685 270.809 33.1289C269.702 33.3893 268.839 33.6009 268.221 33.7637L268.953 30.6387C271.492 29.4993 273.738 28.653 275.691 28.0996C277.645 27.5462 279.321 27.2695 280.721 27.2695C283.325 27.2695 285.164 27.9857 286.238 29.418C287.345 30.8177 287.931 32.7383 287.996 35.1797H288.289C292.13 32.1523 295.288 29.9876 297.762 28.6855C300.236 27.3835 303.182 26.7324 306.6 26.7324C309.497 26.7324 311.84 27.5788 313.631 29.2715C315.454 30.9316 316.479 33.0312 316.707 35.5703H316.902C320.385 32.6732 323.478 30.4759 326.18 28.9785C328.914 27.4811 332.088 26.7324 335.701 26.7324C338.826 26.7324 341.219 27.6439 342.879 29.4668C344.572 31.2572 345.418 33.6172 345.418 36.5469C345.418 37.1328 345.32 38.1745 345.125 39.6719C344.962 41.1693 344.686 42.6504 344.295 44.1152L340.193 59.7891C339.9 60.8307 339.624 62.0352 339.363 63.4023C339.103 64.737 338.973 65.7786 338.973 66.5273C338.973 68.3828 339.363 69.6523 340.145 70.3359C340.926 70.987 342.244 71.3125 344.1 71.3125C344.718 71.3125 345.613 71.2311 346.785 71.0684C347.957 70.9056 348.852 70.7103 349.471 70.4824ZM397.566 36.8887C397.566 40.3392 396.476 43.3014 394.295 45.7754C392.146 48.2493 389.005 50.2188 384.871 51.6836C381.844 52.7904 378.784 53.6855 375.691 54.3691C372.599 55.0527 369.181 55.6224 365.438 56.0781C365.438 61.2214 366.382 65.1602 368.27 67.8945C370.19 70.5964 372.99 71.9473 376.668 71.9473C379.923 71.9473 382.788 71.1335 385.262 69.5059C387.768 67.8783 390.226 65.4531 392.635 62.2305L395.418 64.2812C392.814 68.2526 389.559 71.4264 385.652 73.8027C381.746 76.179 377.693 77.3672 373.494 77.3672C367.732 77.3672 363.322 75.7559 360.262 72.5332C357.234 69.3105 355.721 64.737 355.721 58.8125C355.721 54.7109 356.355 50.8047 357.625 47.0938C358.927 43.3503 360.815 39.9323 363.289 36.8398C365.698 33.8125 368.644 31.3711 372.127 29.5156C375.643 27.6602 379.516 26.7324 383.748 26.7324C388.436 26.7324 391.902 27.6927 394.148 29.6133C396.427 31.5013 397.566 33.9264 397.566 36.8887ZM388.582 35.668C388.582 34.3984 388.403 33.4056 388.045 32.6895C387.687 31.9408 387.231 31.3874 386.678 31.0293C386.092 30.6387 385.473 30.3945 384.822 30.2969C384.171 30.1992 383.504 30.1504 382.82 30.1504C378.914 30.1504 375.301 32.2988 371.98 36.5957C368.693 40.8926 366.609 46.2474 365.73 52.6602C368.009 52.3346 370.581 51.8789 373.445 51.293C376.31 50.6745 378.686 49.877 380.574 48.9004C383.276 47.5007 385.278 45.7103 386.58 43.5293C387.915 41.3158 388.582 38.6953 388.582 35.668ZM475.594 45.3848C475.594 49.7142 474.812 53.8646 473.25 57.8359C471.688 61.7747 469.62 65.1764 467.049 68.041C464.412 70.9707 461.434 73.2819 458.113 74.9746C454.793 76.6348 451.277 77.4648 447.566 77.4648C444.767 77.4648 442.293 77.2207 440.145 76.7324C438.029 76.2767 436.222 75.6419 434.725 74.8281C433.195 73.9818 431.925 73.0378 430.916 71.9961C429.907 70.9219 428.995 69.7337 428.182 68.4316L440.779 13.1582C440.942 12.4095 441.072 11.7747 441.17 11.2539C441.3 10.7005 441.365 10.1471 441.365 9.59375C441.365 8.42188 441.17 7.52669 440.779 6.9082C440.389 6.25716 439.835 5.76888 439.119 5.44336C438.436 5.15039 437.573 4.95508 436.531 4.85742C435.49 4.75977 434.432 4.64583 433.357 4.51562L434.041 1.53711L452.156 0.414062L452.645 1.14648L445.223 33.6172H445.418C448.348 31.013 450.919 29.2227 453.133 28.2461C455.379 27.237 457.56 26.7324 459.676 26.7324C464.624 26.7324 468.514 28.4251 471.346 31.8105C474.178 35.1634 475.594 39.6882 475.594 45.3848ZM465.535 45.6289C465.535 43.9036 465.372 42.1784 465.047 40.4531C464.754 38.6953 464.249 37.2305 463.533 36.0586C462.785 34.8216 461.759 33.8451 460.457 33.1289C459.155 32.4128 457.544 32.0547 455.623 32.0547C454.484 32.0547 453.41 32.25 452.4 32.6406C451.391 33.0312 450.35 33.5521 449.275 34.2031C448.331 34.7891 447.404 35.5052 446.492 36.3516C445.613 37.1654 444.799 37.8978 444.051 38.5488L437.557 67.5039C437.654 68.1549 437.947 68.8711 438.436 69.6523C438.924 70.4336 439.542 71.1172 440.291 71.7031C441.202 72.4518 442.228 73.0215 443.367 73.4121C444.507 73.8027 445.76 73.998 447.127 73.998C449.699 73.998 452.107 73.2493 454.354 71.752C456.632 70.222 458.585 68.1712 460.213 65.5996C462.003 62.8001 463.338 59.6751 464.217 56.2246C465.096 52.7741 465.535 49.2422 465.535 45.6289ZM512.996 69.5547H512.654C511.938 70.1406 511.076 70.8893 510.066 71.8008C509.09 72.6797 507.934 73.526 506.6 74.3398C505.33 75.1536 503.947 75.8535 502.449 76.4395C500.952 77.0579 499.324 77.3672 497.566 77.3672C492.846 77.3672 489.135 75.6745 486.434 72.2891C483.764 68.9036 482.43 64.2812 482.43 58.4219C482.43 54.3854 483.178 50.4629 484.676 46.6543C486.173 42.8457 488.24 39.4277 490.877 36.4004C493.383 33.5033 496.362 31.1758 499.812 29.418C503.263 27.6276 506.811 26.7324 510.457 26.7324C512.768 26.7324 514.965 27.0417 517.049 27.6602C519.165 28.2786 520.825 28.9785 522.029 29.7598L530.965 27.4648L531.551 28.1973L524.129 59.6914C523.868 60.7005 523.592 61.9375 523.299 63.4023C523.038 64.8346 522.908 65.8926 522.908 66.5762C522.908 68.4316 523.299 69.6849 524.08 70.3359C524.861 70.987 526.18 71.3125 528.035 71.3125C528.654 71.3125 529.533 71.2148 530.672 71.0195C531.811 70.8242 532.69 70.6126 533.309 70.3848L532.576 73.5098C529.646 74.6816 527.465 75.528 526.033 76.0488C524.601 76.5697 522.859 76.8301 520.809 76.8301C518.465 76.8301 516.609 76.1465 515.242 74.7793C513.875 73.4121 513.126 71.6706 512.996 69.5547ZM519.979 38.6953C519.979 37.6211 519.865 36.5957 519.637 35.6191C519.409 34.6426 518.937 33.7311 518.221 32.8848C517.57 32.071 516.674 31.4199 515.535 30.9316C514.396 30.4434 512.964 30.1992 511.238 30.1992C508.862 30.1992 506.551 30.9805 504.305 32.543C502.059 34.1055 500.04 36.2051 498.25 38.8418C496.557 41.3158 495.174 44.3105 494.1 47.8262C493.025 51.3418 492.488 54.9062 492.488 58.5195C492.488 60.5052 492.602 62.263 492.83 63.793C493.058 65.3229 493.497 66.7227 494.148 67.9922C494.767 69.2292 495.662 70.1895 496.834 70.873C498.006 71.5566 499.487 71.8984 501.277 71.8984C503.1 71.8984 505.005 71.3939 506.99 70.3848C509.008 69.3431 511.271 67.5365 513.777 64.9648L519.979 38.6953ZM558.064 77.3672C552.368 77.3672 547.859 75.707 544.539 72.3867C541.251 69.0664 539.607 64.3464 539.607 58.2266C539.607 54.1576 540.226 50.2676 541.463 46.5566C542.732 42.8132 544.49 39.4928 546.736 36.5957C548.982 33.6986 551.814 31.3385 555.232 29.5156C558.683 27.6602 562.508 26.7324 566.707 26.7324C571.362 26.7324 574.894 27.7253 577.303 29.7109C579.744 31.6641 580.965 34.138 580.965 37.1328C580.965 39.3789 580.428 41.3483 579.354 43.041C578.312 44.7337 576.733 45.5801 574.617 45.5801C572.859 45.5801 571.541 45.1406 570.662 44.2617C569.783 43.3828 569.344 42.4062 569.344 41.332C569.344 40.2904 569.702 38.8743 570.418 37.084C571.134 35.2611 571.704 33.7962 572.127 32.6895C571.769 31.8105 570.971 31.1758 569.734 30.7852C568.497 30.362 567.212 30.1504 565.877 30.1504C561.45 30.1504 557.625 32.7383 554.402 37.9141C551.212 43.0573 549.617 49.3724 549.617 56.8594C549.617 61.4818 550.643 65.1602 552.693 67.8945C554.777 70.5964 557.576 71.9473 561.092 71.9473C564.249 71.9473 567.049 71.1009 569.49 69.4082C571.964 67.7155 574.324 65.3229 576.57 62.2305L579.354 64.2812C577.107 67.8294 574.048 70.9056 570.174 73.5098C566.333 76.0814 562.296 77.3672 558.064 77.3672ZM634.041 32.2988C634.041 33.7311 633.471 35.0658 632.332 36.3027C631.225 37.5072 629.842 38.1094 628.182 38.1094C627.107 38.1094 626.049 37.9629 625.008 37.6699C623.966 37.377 622.827 36.9375 621.59 36.3516C619.799 37.3607 617.944 38.6139 616.023 40.1113C614.135 41.5762 612.068 43.3665 609.822 45.4824C611.678 50.3001 613.24 54.2552 614.51 57.3477C615.812 60.4076 616.919 62.9141 617.83 64.8672C619.002 67.3086 620.288 69.0501 621.688 70.0918C623.12 71.1009 624.682 71.6055 626.375 71.6055C627.156 71.6055 628.23 71.4915 629.598 71.2637C630.965 71.0033 632.023 70.7428 632.771 70.4824L632.039 73.7051C629.012 74.9421 626.635 75.7721 624.91 76.1953C623.185 76.6185 621.443 76.8301 619.686 76.8301C617.602 76.8301 615.812 76.2604 614.314 75.1211C612.85 73.9492 611.434 71.8496 610.066 68.8223C608.732 65.9251 607.544 63.0768 606.502 60.2773C605.46 57.4453 604.435 54.776 603.426 52.2695L597.713 57.1523L593.514 76H584.432L598.934 13.1582C599.161 12.1491 599.308 11.4492 599.373 11.0586C599.471 10.668 599.52 10.1797 599.52 9.59375C599.52 8.42188 599.324 7.52669 598.934 6.9082C598.543 6.25716 597.99 5.76888 597.273 5.44336C596.59 5.15039 595.727 4.95508 594.686 4.85742C593.644 4.75977 592.586 4.64583 591.512 4.51562L592.195 1.53711L610.311 0.414062L610.799 1.14648L598.885 51.9766H599.08C602.758 48.0052 606.095 44.571 609.09 41.6738C612.117 38.7441 615.275 35.7656 618.562 32.7383C620.906 30.5898 622.762 29.125 624.129 28.3438C625.496 27.5299 626.961 27.123 628.523 27.123C630.184 27.123 631.518 27.5951 632.527 28.5391C633.536 29.4505 634.041 30.7038 634.041 32.2988ZM673.494 77.0254C670.402 77.0254 668.139 76.4069 666.707 75.1699C665.275 73.9004 664.559 72.0938 664.559 69.75C664.559 69.0013 664.607 68.3014 664.705 67.6504C664.803 66.9668 664.933 66.2018 665.096 65.3555L672.664 32.7383H663.973L664.998 28.2949H673.885L677.303 13.9883H686.092L682.771 28.2949H696.395L695.369 32.7383H681.844L675.594 59.6426C675.301 60.8796 675.057 62.084 674.861 63.2559C674.666 64.3952 674.568 65.3717 674.568 66.1855C674.568 67.9759 675.008 69.2943 675.887 70.1406C676.798 70.9544 678.426 71.3613 680.77 71.3613C681.616 71.3613 682.804 71.2637 684.334 71.0684C685.864 70.8405 687.052 70.5638 687.898 70.2383L687.068 73.8027C684.79 74.6816 682.641 75.4303 680.623 76.0488C678.605 76.6999 676.229 77.0254 673.494 77.0254ZM743.904 45.9219C743.904 49.763 743.253 53.6042 741.951 57.4453C740.649 61.2865 738.761 64.6556 736.287 67.5527C733.781 70.5475 730.753 72.9564 727.205 74.7793C723.689 76.5697 719.604 77.4648 714.949 77.4648C709.546 77.4648 705.151 75.7233 701.766 72.2402C698.413 68.7572 696.736 64.0697 696.736 58.1777C696.736 53.8483 697.452 49.8118 698.885 46.0684C700.317 42.3249 702.238 39.0371 704.646 36.2051C707.088 33.373 710.099 31.0944 713.68 29.3691C717.293 27.6113 721.199 26.7324 725.398 26.7324C731.193 26.7324 735.717 28.5065 738.973 32.0547C742.26 35.5703 743.904 40.1927 743.904 45.9219ZM733.943 44.0664C733.943 39.444 733.113 35.9772 731.453 33.666C729.826 31.3548 727.465 30.1992 724.373 30.1992C721.671 30.1992 719.116 31.0293 716.707 32.6895C714.331 34.3496 712.28 37.0514 710.555 40.7949C709.22 43.627 708.243 46.7845 707.625 50.2676C707.007 53.7181 706.697 56.9082 706.697 59.8379C706.697 64.4928 707.495 68.0247 709.09 70.4336C710.717 72.8099 713.159 73.998 716.414 73.998C719.311 73.998 721.883 73.0866 724.129 71.2637C726.375 69.4408 728.198 67.1296 729.598 64.3301C730.997 61.5957 732.072 58.4707 732.82 54.9551C733.569 51.4069 733.943 47.7773 733.943 44.0664Z" fill="currentColor"/>
</svg>
